<svg width="17" height="11" viewBox="0 0 17 11" fill="none" xmlns="http://www.w3.org/2000/svg">
<path d="M13.125 0C12.7798 0 12.5 0.279822 12.5 0.625C12.5 0.970178 12.7798 1.25 13.125 1.25V0.625V0ZM6.62524 10.125V10.75V10.125ZM5.62524 10.125V10.75L6.62524 10.75V10.125L6.62524 9.5L5.62524 9.5V10.125ZM0.625053 1.62505L5.34654e-05 1.62509L0.000240505 5.1253L0.625241 5.12527L1.25024 5.12524L1.25005 1.62502L0.625053 1.62505ZM10.6251 0.625V0H1.62505V0.625V1.25H10.6251V0.625ZM15.625 3.18162H16.25V1.08469H15.625H15V3.18162H15.625ZM15.1653 0.625V0H13.125V0.625V1.25H15.1653V0.625ZM11.6252 5.12474L12.2502 5.12471L12.2501 1.62492L11.6251 1.62495L11.0001 1.62498L11.0002 5.12478L11.6252 5.12474ZM15.625 1.08469H16.25C16.25 0.485633 15.7644 0 15.1653 0V0.625V1.25C15.074 1.25 15 1.17599 15 1.08469H15.625ZM15.625 3.18162H15C15 4.21716 14.1605 5.05662 13.125 5.05662V5.68162V6.30662C14.8509 6.30662 16.25 4.90751 16.25 3.18162H15.625ZM0.625053 1.62505L1.25005 1.62502C1.25004 1.41791 1.41794 1.25 1.62505 1.25V0.625V0C0.727557 0 5.48363e-06 0.72759 5.34654e-05 1.62509L0.625053 1.62505ZM10.6251 0.625V1.25C10.8322 1.25 11 1.41788 11.0001 1.62498L11.6251 1.62495L12.2501 1.62492C12.25 0.727488 11.5225 0 10.6251 0V0.625ZM6.62524 10.125V10.75C9.73195 10.75 12.2504 8.23143 12.2502 5.12471L11.6252 5.12474L11.0002 5.12478C11.0004 7.54111 9.04157 9.5 6.62524 9.5L6.62524 10.125ZM5.62524 10.125V9.5C3.20908 9.5 1.25037 7.54139 1.25024 5.12524L0.625241 5.12527L0.000240505 5.1253C0.000406504 8.23179 2.51875 10.75 5.62524 10.75V10.125Z" fill="white"/>
</svg>
