<svg width="18" height="17" viewBox="0 0 18 17" fill="none" xmlns="http://www.w3.org/2000/svg">
<path d="M2.10011 7.02537L1.65914 7.46828L1.65915 7.46828L2.10011 7.02537ZM1.69729 4.61523L2.13445 5.06194L2.13826 5.05814L1.69729 4.61523ZM4.1174 5.0169L3.67641 5.45979L3.69053 5.47386L3.70553 5.48699L4.1174 5.0169ZM7.4835 7.96616L7.07162 8.43625L7.37774 8.70447L7.74685 8.53297L7.4835 7.96616ZM0.184029 1.16386C-0.0605835 1.4074 -0.061452 1.80313 0.18209 2.04774C0.425631 2.29235 0.821358 2.29322 1.06597 2.04968L0.625 1.60677L0.184029 1.16386ZM3.4117 2.04968C3.65631 2.29322 4.05204 2.29235 4.29558 2.04774C4.53912 1.80313 4.53825 1.4074 4.29364 1.16386L3.85267 1.60677L3.4117 2.04968ZM4.29364 12.8869C4.53825 12.6434 4.53912 12.2476 4.29558 12.003C4.05204 11.7584 3.65631 11.7575 3.4117 12.0011L3.85267 12.444L4.29364 12.8869ZM1.06597 12.0011C0.821358 11.7575 0.425631 11.7584 0.18209 12.003C-0.061452 12.2476 -0.0605835 12.6434 0.184029 12.8869L0.625 12.444L1.06597 12.0011ZM3.64994 12.6458L3.20897 12.2029L3.64994 12.6458ZM0.827729 1.40493L0.386758 0.962016L0.827729 1.40493ZM3.64994 1.40493L3.20897 1.84784L3.64994 1.40493ZM6.58471 13.6813L7.02568 14.1242L6.58471 13.6813ZM11.538 6.08234L11.2746 5.51554L11.538 6.08234ZM15.0191 6.78193L14.5572 7.20299L15.0191 6.78193ZM2.10011 7.02537L2.54108 6.58246C2.21828 6.26106 2.05105 5.91074 2.00543 5.62422C1.95981 5.33763 2.03622 5.15803 2.13443 5.06192L1.69729 4.61523L1.26015 4.16854C0.803968 4.61497 0.678326 5.23875 0.77098 5.82074C0.863646 6.40281 1.17503 6.98629 1.65914 7.46828L2.10011 7.02537ZM1.69729 4.61523L2.13826 5.05814C2.3415 4.8558 2.5537 4.82763 2.82419 4.91034C3.12879 5.00347 3.4471 5.23146 3.67641 5.45979L4.1174 5.0169L4.5584 4.57402C4.24635 4.2633 3.75806 3.88875 3.18968 3.71497C2.58718 3.53075 1.86001 3.57128 1.25632 4.17232L1.69729 4.61523ZM4.1174 5.0169L3.70553 5.48699L7.07162 8.43625L7.4835 7.96616L7.89537 7.49607L4.52928 4.54682L4.1174 5.0169ZM7.4835 7.96616L7.74685 8.53297L11.8013 6.64915L11.538 6.08234L11.2746 5.51554L7.22014 7.39936L7.4835 7.96616ZM15.0191 6.78193L14.5572 7.20299L16.1631 8.96459L16.625 8.54353L17.0869 8.12247L15.481 6.36087L15.0191 6.78193ZM8.10766 16V16.625H16.4718V16V15.375H8.10766V16ZM6.67658 13.5898L6.23561 13.1469L6.14374 13.2384L6.58471 13.6813L7.02568 14.1242L7.11755 14.0328L6.67658 13.5898ZM2.10011 7.02537L1.65915 7.46828L8.65616 14.4345L9.09712 13.9915L9.53808 13.5486L2.54107 6.58245L2.10011 7.02537ZM0.625 1.60677L1.06597 2.04968L1.2687 1.84784L0.827729 1.40493L0.386758 0.962016L0.184029 1.16386L0.625 1.60677ZM3.64994 1.40493L3.20897 1.84784L3.4117 2.04968L3.85267 1.60677L4.29364 1.16386L4.09091 0.962016L3.64994 1.40493ZM3.85267 12.444L3.4117 12.0011L3.20897 12.2029L3.64994 12.6458L4.09091 13.0887L4.29364 12.8869L3.85267 12.444ZM0.827729 12.6458L1.2687 12.2029L1.06597 12.0011L0.625 12.444L0.184029 12.8869L0.386758 13.0887L0.827729 12.6458ZM3.64994 12.6458L3.20897 12.2029C2.67249 12.7371 1.80518 12.7371 1.2687 12.2029L0.827729 12.6458L0.386758 13.0887C1.41094 14.1084 3.06673 14.1084 4.09091 13.0887L3.64994 12.6458ZM0.827729 1.40493L1.2687 1.84784C1.80518 1.31371 2.67249 1.31371 3.20897 1.84784L3.64994 1.40493L4.09091 0.962016C3.06673 -0.057685 1.41094 -0.0576848 0.386758 0.962016L0.827729 1.40493ZM8.10766 16V15.375C7.51796 15.375 7.0206 14.9358 6.94769 14.3506L6.32748 14.4279L5.70728 14.5051C5.85816 15.7161 6.88737 16.625 8.10766 16.625V16ZM6.58471 13.6813L6.14374 13.2384C5.81023 13.5705 5.64909 14.0381 5.70728 14.5051L6.32748 14.4279L6.94769 14.3506C6.93729 14.2671 6.96608 14.1836 7.02568 14.1242L6.58471 13.6813ZM11.538 6.08234L11.8013 6.64915C12.7423 6.21194 13.8582 6.4362 14.5572 7.20299L15.0191 6.78193L15.481 6.36087C14.414 5.1905 12.7109 4.84822 11.2746 5.51554L11.538 6.08234Z" fill="url(#paint0_linear_149_93)"/>
<path d="M16.625 8.54353L15.0191 6.78194C14.1361 5.81336 12.7266 5.53009 11.538 6.08235L7.4835 7.96617L4.1174 5.01691C3.57604 4.47786 2.50421 3.81185 1.69729 4.61523C1.14289 5.15778 1.29319 6.22199 2.10011 7.02537L9.09712 13.9915M16.4718 16H8.10766C7.20266 16 6.43938 15.3259 6.32748 14.4279C6.29319 14.1526 6.38815 13.877 6.58471 13.6813L6.67658 13.5899" stroke="white" stroke-width="1.25"/>
<defs>
<linearGradient id="paint0_linear_149_93" x1="8.625" y1="0" x2="8.625" y2="16" gradientUnits="userSpaceOnUse">
<stop stop-color="white" stop-opacity="0.32"/>
<stop offset="1" stop-color="white" stop-opacity="0.64"/>
</linearGradient>
</defs>
</svg>
