<svg width="16" height="14" viewBox="0 0 16 14" fill="none" xmlns="http://www.w3.org/2000/svg">
<path d="M1.62501 0.62501H5.625C6.17728 0.62501 6.625 1.07272 6.625 1.62501V4.62501C6.625 5.17729 6.17729 5.62501 5.625 5.62501H1.62501C1.07272 5.62501 0.625007 5.17729 0.625007 4.62501V1.62501C0.625007 1.07272 1.07272 0.62501 1.62501 0.62501Z" stroke="white" stroke-width="1.25"/>
<path d="M8.62501 4.62501V1.62501C8.62501 1.07272 9.07272 0.625009 9.62501 0.625008L13.625 0.625C14.1773 0.625 14.625 1.07272 14.625 1.625V4.625C14.625 5.17729 14.1773 5.625 13.625 5.625L9.62501 5.62501C9.07272 5.62501 8.62501 5.17729 8.62501 4.62501Z" stroke="white" stroke-width="1.25"/>
<path d="M6.625 9.125V12.125C6.625 12.6773 6.17729 13.125 5.625 13.125L1.625 13.125C1.07272 13.125 0.625 12.6773 0.625 12.125L0.625005 9.125C0.625006 8.57271 1.07272 8.125 1.625 8.125H5.625C6.17728 8.125 6.625 8.57272 6.625 9.125Z" stroke="white" stroke-width="1.25"/>
<path d="M8.62501 12.125V9.125C8.62501 8.57272 9.07272 8.125 9.62501 8.125H13.625C14.1773 8.125 14.625 8.57272 14.625 9.125V12.125C14.625 12.6773 14.1773 13.125 13.625 13.125H9.62501C9.07272 13.125 8.62501 12.6773 8.62501 12.125Z" stroke="white" stroke-width="1.25"/>
</svg>
